<svg xmlns="http://www.w3.org/2000/svg" viewBox="0 0 512 512">
  <defs>
    <radialGradient id="bg" cx="35%" cy="30%" r="75%">
      <stop offset="0%" stop-color="#49b06a"/>
      <stop offset="100%" stop-color="#1f7d42"/>
    </radialGradient>
  </defs>
  <rect width="512" height="512" rx="110" fill="url(#bg)"/>
  <circle cx="256" cy="256" r="150" fill="#fff"/>
  <path d="M256 154 304 188 286 245 226 245 208 188z" fill="#111827"/>
  <path d="M208 188 170 219 184 272 226 245zM304 188 342 219 328 272 286 245zM184 272 201 323 256 356 226 245zM328 272 311 323 256 356 286 245zM201 323 239 350 273 350 311 323 256 356z" fill="#111827"/>
  <circle cx="256" cy="256" r="150" fill="none" stroke="#e5e7eb" stroke-width="8"/>
</svg>
